<?xml version="1.0" standalone="no"?><!DOCTYPE svg PUBLIC "-//W3C//DTD SVG 1.1//EN" "http://www.w3.org/Graphics/SVG/1.1/DTD/svg11.dtd"><svg t="1567648650314" class="icon" viewBox="0 0 1024 1024" version="1.1" xmlns="http://www.w3.org/2000/svg" p-id="2203" width="16" height="16" xmlns:xlink="http://www.w3.org/1999/xlink"><defs><style type="text/css"></style></defs><path d="M304 117c0-11-9-20-20-20H116.3c-11 0-20 9-20 20v167.4c0 11 9 20 20 20h15.1c11 0 20-9 20-20V172.1c0-11 9-20 20-20H284c11 0 20-9 20-20V117zM718.8 117c0-11 9-20 20-20h167.6c11 0 20 9 20 20v167.4c0 11-9 20-20 20h-15.1c-11 0-20-9-20-20V172.1c0-11-9-20-20-20H738.8c-11 0-20-9-20-20V117zM303.3 908.3c0 11-9 20-20 20h-167c-11 0-20-9-20-20v-15.1-153.5c0-11 9-20 20-20h15.1c11 0 20 9 20 20v113.5c0 11 9 20 20 20h111.9c11 0 20 9 20 20v15.1zM718.6 908.3c0 11 9 20 20 20H906.4c11 0 20-9 20-20v-15.1-153.5c0-11-9-20-20-20h-15.1c-11 0-20 9-20 20v113.5c0 11-9 20-20 20H738.6c-11 0-20 9-20 20v15.1z" fill="#000000" p-id="2204"></path><path d="M219.8 356.6c-11 0-20 9-20 20v272.1c0 11 9 20 20 20h583c11 0 20-9 20-20V376.6c0-11-9-20-20-20h-583z m548 237.7c0 11-9 20-20 20H274.9c-11 0-20-9-20-20V431c0-11 9-20 20-20h472.9c11 0 20 9 20 20v163.3z" fill="#000000" p-id="2205"></path></svg>